<?xml version="1.0" encoding="UTF-8"?>
<svg width="3960px" height="28px" viewBox="0 0 3960 28" version="1.1" xmlns="http://www.w3.org/2000/svg" xmlns:xlink="http://www.w3.org/1999/xlink">
    <title>MM-Website-Divider-Green</title>
    <defs>
        <rect id="path-1" x="0" y="0" width="28.6900958" height="28"></rect>
        <rect id="path-3" x="0" y="0" width="28.6900958" height="28"></rect>
    </defs>
    <g id="Page-1" stroke="none" stroke-width="1" fill="none" fill-rule="evenodd">
        <g id="MM-Website-Divider-Green">
            <g id="Clipped" transform="translate(1965.4665, 0)">
                <mask id="mask-2" fill="white">
                    <use xlink:href="#path-1"></use>
                </mask>
                <g id="Rectangle"></g>
                <g mask="url(#mask-2)">
                    <mask id="mask-4" fill="white">
                        <use xlink:href="#path-3"></use>
                    </mask>
                    <g id="Rectangle"></g>
                    <g id="Group" mask="url(#mask-4)" fill="#465836" fill-rule="nonzero">
                        <g transform="translate(0.0501, 0.0346)" id="Shape">
                            <path d="M8.0137992,11.6203829 L9.96907076,16.0421081 L10.0840867,16.0421081 L11.9115628,11.8759739 L11.9115628,14.7002551 C11.9115628,15.5692647 11.8093264,15.7098397 11.0808918,15.7098397 L11.0808918,15.8887535 L13.4578887,15.8887535 L13.4578887,15.7098397 C12.7166746,15.7098397 12.6144382,15.5692647 12.6144382,14.7002551 L12.6144382,11.8887535 C12.6144382,11.0197439 12.7166746,10.8791688 13.4578887,10.8791688 L13.4578887,10.7002551 L12.077697,10.7002551 L10.2246618,14.9175075 L8.35884712,10.7002551 L6.86363945,10.7002551 L6.86363945,10.8791688 C7.59207396,10.8791688 7.70708993,11.0197439 7.70708993,11.8887535 L7.70708993,14.7002551 C7.70708993,15.5692647 7.60485351,15.7098397 6.86363945,15.7098397 L6.86363945,15.8887535 L8.87002923,15.8887535 L8.87002923,15.7098397 C8.14159473,15.7098397 8.02657875,15.5692647 8.02657875,14.7002551 L8.02657875,11.6203829 L8.0137992,11.6203829 Z M15.732649,11.6203829 L17.6879206,16.0421081 L17.8029366,16.0421081 L19.6304126,11.8759739 L19.6304126,14.7002551 C19.6304126,15.5692647 19.5281762,15.7098397 18.7997417,15.7098397 L18.7997417,15.8887535 L21.1767385,15.8887535 L21.1767385,15.7098397 C20.4355244,15.7098397 20.333288,15.5692647 20.333288,14.7002551 L20.333288,11.8887535 C20.333288,11.0197439 20.4355244,10.8791688 21.1767385,10.8791688 L21.1767385,10.7002551 L19.7965468,10.7002551 L17.9435117,14.9175075 L16.077697,10.7002551 L14.5824893,10.7002551 L14.5824893,10.8791688 C15.3109238,10.8791688 15.4131602,11.0197439 15.4131602,11.8887535 L15.4131602,14.7002551 C15.4131602,15.5692647 15.3109238,15.7098397 14.5824893,15.7098397 L14.5824893,15.8887535 L16.5888791,15.8887535 L16.5888791,15.7098397 C15.8604446,15.7098397 15.7454286,15.5692647 15.7454286,14.7002551 L15.7454286,11.6203829 L15.732649,11.6203829 Z"></path>
                            <path d="M10.7358439,0.757763057 C11.7070899,0.578849319 12.6911155,0.374376476 13.6623615,0.20824229 C15.7454286,-0.136805633 17.8029366,-0.12402608 19.7454286,0.796101715 C20.4355244,1.11559053 21.0233839,1.63955219 21.6751411,2.04849788 C22.0713072,2.30408894 22.4674733,2.53412088 22.8891986,2.75137328 C23.962681,3.28811449 24.9722657,3.93987168 25.8029366,4.80888127 C27.0808918,6.1507343 27.8860037,7.73539884 28.1671538,9.60121354 C28.3971858,11.1475394 28.6527768,12.6938653 28.6016586,14.2657503 C28.5505404,15.7609579 28.4610835,17.2817247 27.732649,18.6235778 C26.991435,19.9909899 26.2374414,21.358402 24.9722657,22.3424276 C23.8732241,23.1986576 22.8508599,24.1571241 21.6879206,24.9238972 C20.6144382,25.6395522 19.4259398,26.189073 18.27578,26.7641528 C17.5729046,27.1092008 16.8572497,27.4286896 16.1160356,27.6842806 C15.3364829,27.9654308 14.5313711,27.9398717 13.7007002,27.901533 C12.2566107,27.8376353 10.9147577,27.3647918 9.56012508,27.0069643 C8.10325607,26.6107982 6.83808035,25.8184659 5.64958195,24.8983381 C5.11284073,24.4893925 4.53776086,24.1060059 4.0393583,23.645942 C2.390796,22.1507343 1.43232955,20.2338014 0.806131466,18.1251752 C0.435524438,16.8983381 -0.0245394601,15.6842806 0.00101964532,14.3807663 C0.0521378562,12.1699036 0.346067569,10.0101592 1.47066821,8.04210811 C1.96907076,7.16031897 2.3652369,6.22741162 2.87641901,5.37118159 C3.47705798,4.37437648 4.21827204,3.49258734 5.15117939,2.78971194 C5.76459792,2.32964804 6.32689824,1.75456817 6.99143498,1.38396114 C8.14159473,0.732203952 9.41955,0.578849319 10.7230644,0.617187977 C10.7230644,0.655526636 10.7358439,0.693865294 10.7486235,0.744983505 M23.8987832,12.7066448 C23.9754605,11.2114372 23.6048535,9.71622951 23.0553327,8.2593605 C22.7358439,7.41591002 22.3524573,6.5852391 21.5984637,6.04849788 C19.6048535,4.64274708 17.4962273,3.47980779 14.9147577,3.7737375 C14.1224254,3.86319437 13.3173136,3.92709213 12.5377609,4.11878542 C11.5792944,4.34881737 10.6336075,4.66830619 9.70070016,4.98779501 C7.69431038,5.65233175 6.22466182,6.96862568 5.15117939,8.75776306 C4.94670655,9.09003143 4.61443818,9.34562248 4.34606757,9.62677264 C4.07769696,9.9079228 3.69431038,10.1507343 3.52817619,10.4830027 C3.01699409,11.5564851 2.69750527,12.6810857 2.54415064,13.8951432 C2.40357556,14.9941848 2.41635511,16.0676672 2.59526885,17.1539292 C2.79974169,18.3679867 3.61763306,19.2753349 4.40996533,20.131565 C5.53456597,21.3456225 6.96587588,22.1251752 8.51220175,22.7385937 C10.5697097,23.5692647 12.6144382,24.2593605 14.876419,24.1187854 C16.0649174,24.0548877 17.1639589,23.7226193 18.1863232,23.1475394 C19.6304126,22.329648 20.8061315,21.1794883 21.790157,19.8887535 C22.4163551,19.0580825 22.9530963,18.1123956 23.3237034,17.1411496 C23.847665,15.7609579 23.9499014,14.2785298 23.9371219,12.7194244"></path>
                        </g>
                    </g>
                </g>
            </g>
            <g id="Group" transform="translate(2003.4473, 12.4089)" fill="#465836" fill-rule="nonzero">
                <circle id="Oval" cx="971.565495" cy="1.59744409" r="1.59744409"></circle>
                <circle id="Oval" cx="957.904153" cy="1.59744409" r="1.59744409"></circle>
                <circle id="Oval" cx="944.242812" cy="1.59744409" r="1.59744409"></circle>
                <circle id="Oval" cx="930.58147" cy="1.59744409" r="1.59744409"></circle>
                <circle id="Oval" cx="916.920128" cy="1.59744409" r="1.59744409"></circle>
                <circle id="Oval" cx="903.258786" cy="1.59744409" r="1.59744409"></circle>
                <circle id="Oval" cx="889.597444" cy="1.59744409" r="1.59744409"></circle>
                <circle id="Oval" cx="875.936102" cy="1.59744409" r="1.59744409"></circle>
                <circle id="Oval" cx="862.27476" cy="1.59744409" r="1.59744409"></circle>
                <circle id="Oval" cx="848.613419" cy="1.59744409" r="1.59744409"></circle>
                <circle id="Oval" cx="834.952077" cy="1.59744409" r="1.59744409"></circle>
                <circle id="Oval" cx="821.290735" cy="1.59744409" r="1.59744409"></circle>
                <circle id="Oval" cx="807.629393" cy="1.59744409" r="1.59744409"></circle>
                <circle id="Oval" cx="793.968051" cy="1.59744409" r="1.59744409"></circle>
                <circle id="Oval" cx="780.306709" cy="1.59744409" r="1.59744409"></circle>
                <circle id="Oval" cx="766.645367" cy="1.59744409" r="1.59744409"></circle>
                <circle id="Oval" cx="752.984026" cy="1.59744409" r="1.59744409"></circle>
                <circle id="Oval" cx="739.322684" cy="1.59744409" r="1.59744409"></circle>
                <circle id="Oval" cx="725.661342" cy="1.59744409" r="1.59744409"></circle>
                <circle id="Oval" cx="712" cy="1.59744409" r="1.59744409"></circle>
                <circle id="Oval" cx="698.338658" cy="1.59744409" r="1.59744409"></circle>
                <circle id="Oval" cx="684.677316" cy="1.59744409" r="1.59744409"></circle>
                <circle id="Oval" cx="671.015974" cy="1.59744409" r="1.59744409"></circle>
                <circle id="Oval" cx="657.354633" cy="1.59744409" r="1.59744409"></circle>
                <circle id="Oval" cx="643.693291" cy="1.59744409" r="1.59744409"></circle>
                <circle id="Oval" cx="630.031949" cy="1.59744409" r="1.59744409"></circle>
                <circle id="Oval" cx="616.370607" cy="1.59744409" r="1.59744409"></circle>
                <circle id="Oval" cx="602.709265" cy="1.59744409" r="1.59744409"></circle>
                <circle id="Oval" cx="589.047923" cy="1.59744409" r="1.59744409"></circle>
                <circle id="Oval" cx="575.386581" cy="1.59744409" r="1.59744409"></circle>
                <circle id="Oval" cx="561.72524" cy="1.59744409" r="1.59744409"></circle>
                <circle id="Oval" cx="548.063898" cy="1.59744409" r="1.59744409"></circle>
                <circle id="Oval" cx="534.402556" cy="1.59744409" r="1.59744409"></circle>
                <circle id="Oval" cx="520.741214" cy="1.59744409" r="1.59744409"></circle>
                <circle id="Oval" cx="507.079872" cy="1.59744409" r="1.59744409"></circle>
                <circle id="Oval" cx="493.41853" cy="1.59744409" r="1.59744409"></circle>
                <circle id="Oval" cx="479.744409" cy="1.59744409" r="1.59744409"></circle>
                <circle id="Oval" cx="466.083067" cy="1.59744409" r="1.59744409"></circle>
                <circle id="Oval" cx="452.421725" cy="1.59744409" r="1.59744409"></circle>
                <circle id="Oval" cx="438.760383" cy="1.59744409" r="1.59744409"></circle>
                <circle id="Oval" cx="425.099042" cy="1.59744409" r="1.59744409"></circle>
                <circle id="Oval" cx="411.4377" cy="1.59744409" r="1.59744409"></circle>
                <circle id="Oval" cx="397.776358" cy="1.59744409" r="1.59744409"></circle>
                <circle id="Oval" cx="384.115016" cy="1.59744409" r="1.59744409"></circle>
                <circle id="Oval" cx="370.453674" cy="1.59744409" r="1.59744409"></circle>
                <circle id="Oval" cx="356.792332" cy="1.59744409" r="1.59744409"></circle>
                <circle id="Oval" cx="343.13099" cy="1.59744409" r="1.59744409"></circle>
                <circle id="Oval" cx="329.469649" cy="1.59744409" r="1.59744409"></circle>
                <circle id="Oval" cx="315.808307" cy="1.59744409" r="1.59744409"></circle>
                <circle id="Oval" cx="302.146965" cy="1.59744409" r="1.59744409"></circle>
                <circle id="Oval" cx="288.485623" cy="1.59744409" r="1.59744409"></circle>
                <circle id="Oval" cx="274.824281" cy="1.59744409" r="1.59744409"></circle>
                <circle id="Oval" cx="261.162939" cy="1.59744409" r="1.59744409"></circle>
                <circle id="Oval" cx="247.501597" cy="1.59744409" r="1.59744409"></circle>
                <circle id="Oval" cx="233.840256" cy="1.59744409" r="1.59744409"></circle>
                <circle id="Oval" cx="220.178914" cy="1.59744409" r="1.59744409"></circle>
                <circle id="Oval" cx="206.517572" cy="1.59744409" r="1.59744409"></circle>
                <circle id="Oval" cx="192.85623" cy="1.59744409" r="1.59744409"></circle>
                <circle id="Oval" cx="179.194888" cy="1.59744409" r="1.59744409"></circle>
                <circle id="Oval" cx="165.533546" cy="1.59744409" r="1.59744409"></circle>
                <circle id="Oval" cx="151.872204" cy="1.59744409" r="1.59744409"></circle>
                <circle id="Oval" cx="138.210863" cy="1.59744409" r="1.59744409"></circle>
                <circle id="Oval" cx="124.549521" cy="1.59744409" r="1.59744409"></circle>
                <circle id="Oval" cx="110.888179" cy="1.59744409" r="1.59744409"></circle>
                <circle id="Oval" cx="97.2268371" cy="1.59744409" r="1.59744409"></circle>
                <circle id="Oval" cx="83.5654952" cy="1.59744409" r="1.59744409"></circle>
                <circle id="Oval" cx="69.9041534" cy="1.59744409" r="1.59744409"></circle>
                <circle id="Oval" cx="56.2428115" cy="1.59744409" r="1.59744409"></circle>
                <circle id="Oval" cx="42.5814696" cy="1.59744409" r="1.59744409"></circle>
                <circle id="Oval" cx="28.9201278" cy="1.59744409" r="1.59744409"></circle>
                <circle id="Oval" cx="15.2587859" cy="1.59744409" r="1.59744409"></circle>
                <circle id="Oval" cx="1.59744409" cy="1.59744409" r="1.59744409"></circle>
            </g>
            <g id="Group-Copy-2" transform="translate(2986.4473, 12.4089)" fill="#465836" fill-rule="nonzero">
                <circle id="Oval" cx="971.565495" cy="1.59744409" r="1.59744409"></circle>
                <circle id="Oval" cx="957.904153" cy="1.59744409" r="1.59744409"></circle>
                <circle id="Oval" cx="944.242812" cy="1.59744409" r="1.59744409"></circle>
                <circle id="Oval" cx="930.58147" cy="1.59744409" r="1.59744409"></circle>
                <circle id="Oval" cx="916.920128" cy="1.59744409" r="1.59744409"></circle>
                <circle id="Oval" cx="903.258786" cy="1.59744409" r="1.59744409"></circle>
                <circle id="Oval" cx="889.597444" cy="1.59744409" r="1.59744409"></circle>
                <circle id="Oval" cx="875.936102" cy="1.59744409" r="1.59744409"></circle>
                <circle id="Oval" cx="862.27476" cy="1.59744409" r="1.59744409"></circle>
                <circle id="Oval" cx="848.613419" cy="1.59744409" r="1.59744409"></circle>
                <circle id="Oval" cx="834.952077" cy="1.59744409" r="1.59744409"></circle>
                <circle id="Oval" cx="821.290735" cy="1.59744409" r="1.59744409"></circle>
                <circle id="Oval" cx="807.629393" cy="1.59744409" r="1.59744409"></circle>
                <circle id="Oval" cx="793.968051" cy="1.59744409" r="1.59744409"></circle>
                <circle id="Oval" cx="780.306709" cy="1.59744409" r="1.59744409"></circle>
                <circle id="Oval" cx="766.645367" cy="1.59744409" r="1.59744409"></circle>
                <circle id="Oval" cx="752.984026" cy="1.59744409" r="1.59744409"></circle>
                <circle id="Oval" cx="739.322684" cy="1.59744409" r="1.59744409"></circle>
                <circle id="Oval" cx="725.661342" cy="1.59744409" r="1.59744409"></circle>
                <circle id="Oval" cx="712" cy="1.59744409" r="1.59744409"></circle>
                <circle id="Oval" cx="698.338658" cy="1.59744409" r="1.59744409"></circle>
                <circle id="Oval" cx="684.677316" cy="1.59744409" r="1.59744409"></circle>
                <circle id="Oval" cx="671.015974" cy="1.59744409" r="1.59744409"></circle>
                <circle id="Oval" cx="657.354633" cy="1.59744409" r="1.59744409"></circle>
                <circle id="Oval" cx="643.693291" cy="1.59744409" r="1.59744409"></circle>
                <circle id="Oval" cx="630.031949" cy="1.59744409" r="1.59744409"></circle>
                <circle id="Oval" cx="616.370607" cy="1.59744409" r="1.59744409"></circle>
                <circle id="Oval" cx="602.709265" cy="1.59744409" r="1.59744409"></circle>
                <circle id="Oval" cx="589.047923" cy="1.59744409" r="1.59744409"></circle>
                <circle id="Oval" cx="575.386581" cy="1.59744409" r="1.59744409"></circle>
                <circle id="Oval" cx="561.72524" cy="1.59744409" r="1.59744409"></circle>
                <circle id="Oval" cx="548.063898" cy="1.59744409" r="1.59744409"></circle>
                <circle id="Oval" cx="534.402556" cy="1.59744409" r="1.59744409"></circle>
                <circle id="Oval" cx="520.741214" cy="1.59744409" r="1.59744409"></circle>
                <circle id="Oval" cx="507.079872" cy="1.59744409" r="1.59744409"></circle>
                <circle id="Oval" cx="493.41853" cy="1.59744409" r="1.59744409"></circle>
                <circle id="Oval" cx="479.744409" cy="1.59744409" r="1.59744409"></circle>
                <circle id="Oval" cx="466.083067" cy="1.59744409" r="1.59744409"></circle>
                <circle id="Oval" cx="452.421725" cy="1.59744409" r="1.59744409"></circle>
                <circle id="Oval" cx="438.760383" cy="1.59744409" r="1.59744409"></circle>
                <circle id="Oval" cx="425.099042" cy="1.59744409" r="1.59744409"></circle>
                <circle id="Oval" cx="411.4377" cy="1.59744409" r="1.59744409"></circle>
                <circle id="Oval" cx="397.776358" cy="1.59744409" r="1.59744409"></circle>
                <circle id="Oval" cx="384.115016" cy="1.59744409" r="1.59744409"></circle>
                <circle id="Oval" cx="370.453674" cy="1.59744409" r="1.59744409"></circle>
                <circle id="Oval" cx="356.792332" cy="1.59744409" r="1.59744409"></circle>
                <circle id="Oval" cx="343.13099" cy="1.59744409" r="1.59744409"></circle>
                <circle id="Oval" cx="329.469649" cy="1.59744409" r="1.59744409"></circle>
                <circle id="Oval" cx="315.808307" cy="1.59744409" r="1.59744409"></circle>
                <circle id="Oval" cx="302.146965" cy="1.59744409" r="1.59744409"></circle>
                <circle id="Oval" cx="288.485623" cy="1.59744409" r="1.59744409"></circle>
                <circle id="Oval" cx="274.824281" cy="1.59744409" r="1.59744409"></circle>
                <circle id="Oval" cx="261.162939" cy="1.59744409" r="1.59744409"></circle>
                <circle id="Oval" cx="247.501597" cy="1.59744409" r="1.59744409"></circle>
                <circle id="Oval" cx="233.840256" cy="1.59744409" r="1.59744409"></circle>
                <circle id="Oval" cx="220.178914" cy="1.59744409" r="1.59744409"></circle>
                <circle id="Oval" cx="206.517572" cy="1.59744409" r="1.59744409"></circle>
                <circle id="Oval" cx="192.85623" cy="1.59744409" r="1.59744409"></circle>
                <circle id="Oval" cx="179.194888" cy="1.59744409" r="1.59744409"></circle>
                <circle id="Oval" cx="165.533546" cy="1.59744409" r="1.59744409"></circle>
                <circle id="Oval" cx="151.872204" cy="1.59744409" r="1.59744409"></circle>
                <circle id="Oval" cx="138.210863" cy="1.59744409" r="1.59744409"></circle>
                <circle id="Oval" cx="124.549521" cy="1.59744409" r="1.59744409"></circle>
                <circle id="Oval" cx="110.888179" cy="1.59744409" r="1.59744409"></circle>
                <circle id="Oval" cx="97.2268371" cy="1.59744409" r="1.59744409"></circle>
                <circle id="Oval" cx="83.5654952" cy="1.59744409" r="1.59744409"></circle>
                <circle id="Oval" cx="69.9041534" cy="1.59744409" r="1.59744409"></circle>
                <circle id="Oval" cx="56.2428115" cy="1.59744409" r="1.59744409"></circle>
                <circle id="Oval" cx="42.5814696" cy="1.59744409" r="1.59744409"></circle>
                <circle id="Oval" cx="28.9201278" cy="1.59744409" r="1.59744409"></circle>
                <circle id="Oval" cx="15.2587859" cy="1.59744409" r="1.59744409"></circle>
                <circle id="Oval" cx="1.59744409" cy="1.59744409" r="1.59744409"></circle>
            </g>
            <g id="Group" transform="translate(983, 12.4089)" fill="#465836" fill-rule="nonzero">
                <circle id="Oval" cx="971.565495" cy="1.59744409" r="1.59744409"></circle>
                <circle id="Oval" cx="957.904153" cy="1.59744409" r="1.59744409"></circle>
                <circle id="Oval" cx="944.242812" cy="1.59744409" r="1.59744409"></circle>
                <circle id="Oval" cx="930.58147" cy="1.59744409" r="1.59744409"></circle>
                <circle id="Oval" cx="916.920128" cy="1.59744409" r="1.59744409"></circle>
                <circle id="Oval" cx="903.258786" cy="1.59744409" r="1.59744409"></circle>
                <circle id="Oval" cx="889.597444" cy="1.59744409" r="1.59744409"></circle>
                <circle id="Oval" cx="875.936102" cy="1.59744409" r="1.59744409"></circle>
                <circle id="Oval" cx="862.27476" cy="1.59744409" r="1.59744409"></circle>
                <circle id="Oval" cx="848.613419" cy="1.59744409" r="1.59744409"></circle>
                <circle id="Oval" cx="834.952077" cy="1.59744409" r="1.59744409"></circle>
                <circle id="Oval" cx="821.290735" cy="1.59744409" r="1.59744409"></circle>
                <circle id="Oval" cx="807.629393" cy="1.59744409" r="1.59744409"></circle>
                <circle id="Oval" cx="793.968051" cy="1.59744409" r="1.59744409"></circle>
                <circle id="Oval" cx="780.306709" cy="1.59744409" r="1.59744409"></circle>
                <circle id="Oval" cx="766.645367" cy="1.59744409" r="1.59744409"></circle>
                <circle id="Oval" cx="752.984026" cy="1.59744409" r="1.59744409"></circle>
                <circle id="Oval" cx="739.322684" cy="1.59744409" r="1.59744409"></circle>
                <circle id="Oval" cx="725.661342" cy="1.59744409" r="1.59744409"></circle>
                <circle id="Oval" cx="712" cy="1.59744409" r="1.59744409"></circle>
                <circle id="Oval" cx="698.338658" cy="1.59744409" r="1.59744409"></circle>
                <circle id="Oval" cx="684.677316" cy="1.59744409" r="1.59744409"></circle>
                <circle id="Oval" cx="671.015974" cy="1.59744409" r="1.59744409"></circle>
                <circle id="Oval" cx="657.354633" cy="1.59744409" r="1.59744409"></circle>
                <circle id="Oval" cx="643.693291" cy="1.59744409" r="1.59744409"></circle>
                <circle id="Oval" cx="630.031949" cy="1.59744409" r="1.59744409"></circle>
                <circle id="Oval" cx="616.370607" cy="1.59744409" r="1.59744409"></circle>
                <circle id="Oval" cx="602.709265" cy="1.59744409" r="1.59744409"></circle>
                <circle id="Oval" cx="589.047923" cy="1.59744409" r="1.59744409"></circle>
                <circle id="Oval" cx="575.386581" cy="1.59744409" r="1.59744409"></circle>
                <circle id="Oval" cx="561.72524" cy="1.59744409" r="1.59744409"></circle>
                <circle id="Oval" cx="548.063898" cy="1.59744409" r="1.59744409"></circle>
                <circle id="Oval" cx="534.402556" cy="1.59744409" r="1.59744409"></circle>
                <circle id="Oval" cx="520.741214" cy="1.59744409" r="1.59744409"></circle>
                <circle id="Oval" cx="507.079872" cy="1.59744409" r="1.59744409"></circle>
                <circle id="Oval" cx="493.41853" cy="1.59744409" r="1.59744409"></circle>
                <circle id="Oval" cx="479.744409" cy="1.59744409" r="1.59744409"></circle>
                <circle id="Oval" cx="466.083067" cy="1.59744409" r="1.59744409"></circle>
                <circle id="Oval" cx="452.421725" cy="1.59744409" r="1.59744409"></circle>
                <circle id="Oval" cx="438.760383" cy="1.59744409" r="1.59744409"></circle>
                <circle id="Oval" cx="425.099042" cy="1.59744409" r="1.59744409"></circle>
                <circle id="Oval" cx="411.4377" cy="1.59744409" r="1.59744409"></circle>
                <circle id="Oval" cx="397.776358" cy="1.59744409" r="1.59744409"></circle>
                <circle id="Oval" cx="384.115016" cy="1.59744409" r="1.59744409"></circle>
                <circle id="Oval" cx="370.453674" cy="1.59744409" r="1.59744409"></circle>
                <circle id="Oval" cx="356.792332" cy="1.59744409" r="1.59744409"></circle>
                <circle id="Oval" cx="343.13099" cy="1.59744409" r="1.59744409"></circle>
                <circle id="Oval" cx="329.469649" cy="1.59744409" r="1.59744409"></circle>
                <circle id="Oval" cx="315.808307" cy="1.59744409" r="1.59744409"></circle>
                <circle id="Oval" cx="302.146965" cy="1.59744409" r="1.59744409"></circle>
                <circle id="Oval" cx="288.485623" cy="1.59744409" r="1.59744409"></circle>
                <circle id="Oval" cx="274.824281" cy="1.59744409" r="1.59744409"></circle>
                <circle id="Oval" cx="261.162939" cy="1.59744409" r="1.59744409"></circle>
                <circle id="Oval" cx="247.501597" cy="1.59744409" r="1.59744409"></circle>
                <circle id="Oval" cx="233.840256" cy="1.59744409" r="1.59744409"></circle>
                <circle id="Oval" cx="220.178914" cy="1.59744409" r="1.59744409"></circle>
                <circle id="Oval" cx="206.517572" cy="1.59744409" r="1.59744409"></circle>
                <circle id="Oval" cx="192.85623" cy="1.59744409" r="1.59744409"></circle>
                <circle id="Oval" cx="179.194888" cy="1.59744409" r="1.59744409"></circle>
                <circle id="Oval" cx="165.533546" cy="1.59744409" r="1.59744409"></circle>
                <circle id="Oval" cx="151.872204" cy="1.59744409" r="1.59744409"></circle>
                <circle id="Oval" cx="138.210863" cy="1.59744409" r="1.59744409"></circle>
                <circle id="Oval" cx="124.549521" cy="1.59744409" r="1.59744409"></circle>
                <circle id="Oval" cx="110.888179" cy="1.59744409" r="1.59744409"></circle>
                <circle id="Oval" cx="97.2268371" cy="1.59744409" r="1.59744409"></circle>
                <circle id="Oval" cx="83.5654952" cy="1.59744409" r="1.59744409"></circle>
                <circle id="Oval" cx="69.9041534" cy="1.59744409" r="1.59744409"></circle>
                <circle id="Oval" cx="56.2428115" cy="1.59744409" r="1.59744409"></circle>
                <circle id="Oval" cx="42.5814696" cy="1.59744409" r="1.59744409"></circle>
                <circle id="Oval" cx="28.9201278" cy="1.59744409" r="1.59744409"></circle>
                <circle id="Oval" cx="15.2587859" cy="1.59744409" r="1.59744409"></circle>
                <circle id="Oval" cx="1.59744409" cy="1.59744409" r="1.59744409"></circle>
            </g>
            <g id="Group-Copy" transform="translate(0, 12.4089)" fill="#465836" fill-rule="nonzero">
                <circle id="Oval" cx="971.565495" cy="1.59744409" r="1.59744409"></circle>
                <circle id="Oval" cx="957.904153" cy="1.59744409" r="1.59744409"></circle>
                <circle id="Oval" cx="944.242812" cy="1.59744409" r="1.59744409"></circle>
                <circle id="Oval" cx="930.58147" cy="1.59744409" r="1.59744409"></circle>
                <circle id="Oval" cx="916.920128" cy="1.59744409" r="1.59744409"></circle>
                <circle id="Oval" cx="903.258786" cy="1.59744409" r="1.59744409"></circle>
                <circle id="Oval" cx="889.597444" cy="1.59744409" r="1.59744409"></circle>
                <circle id="Oval" cx="875.936102" cy="1.59744409" r="1.59744409"></circle>
                <circle id="Oval" cx="862.27476" cy="1.59744409" r="1.59744409"></circle>
                <circle id="Oval" cx="848.613419" cy="1.59744409" r="1.59744409"></circle>
                <circle id="Oval" cx="834.952077" cy="1.59744409" r="1.59744409"></circle>
                <circle id="Oval" cx="821.290735" cy="1.59744409" r="1.59744409"></circle>
                <circle id="Oval" cx="807.629393" cy="1.59744409" r="1.59744409"></circle>
                <circle id="Oval" cx="793.968051" cy="1.59744409" r="1.59744409"></circle>
                <circle id="Oval" cx="780.306709" cy="1.59744409" r="1.59744409"></circle>
                <circle id="Oval" cx="766.645367" cy="1.59744409" r="1.59744409"></circle>
                <circle id="Oval" cx="752.984026" cy="1.59744409" r="1.59744409"></circle>
                <circle id="Oval" cx="739.322684" cy="1.59744409" r="1.59744409"></circle>
                <circle id="Oval" cx="725.661342" cy="1.59744409" r="1.59744409"></circle>
                <circle id="Oval" cx="712" cy="1.59744409" r="1.59744409"></circle>
                <circle id="Oval" cx="698.338658" cy="1.59744409" r="1.59744409"></circle>
                <circle id="Oval" cx="684.677316" cy="1.59744409" r="1.59744409"></circle>
                <circle id="Oval" cx="671.015974" cy="1.59744409" r="1.59744409"></circle>
                <circle id="Oval" cx="657.354633" cy="1.59744409" r="1.59744409"></circle>
                <circle id="Oval" cx="643.693291" cy="1.59744409" r="1.59744409"></circle>
                <circle id="Oval" cx="630.031949" cy="1.59744409" r="1.59744409"></circle>
                <circle id="Oval" cx="616.370607" cy="1.59744409" r="1.59744409"></circle>
                <circle id="Oval" cx="602.709265" cy="1.59744409" r="1.59744409"></circle>
                <circle id="Oval" cx="589.047923" cy="1.59744409" r="1.59744409"></circle>
                <circle id="Oval" cx="575.386581" cy="1.59744409" r="1.59744409"></circle>
                <circle id="Oval" cx="561.72524" cy="1.59744409" r="1.59744409"></circle>
                <circle id="Oval" cx="548.063898" cy="1.59744409" r="1.59744409"></circle>
                <circle id="Oval" cx="534.402556" cy="1.59744409" r="1.59744409"></circle>
                <circle id="Oval" cx="520.741214" cy="1.59744409" r="1.59744409"></circle>
                <circle id="Oval" cx="507.079872" cy="1.59744409" r="1.59744409"></circle>
                <circle id="Oval" cx="493.41853" cy="1.59744409" r="1.59744409"></circle>
                <circle id="Oval" cx="479.744409" cy="1.59744409" r="1.59744409"></circle>
                <circle id="Oval" cx="466.083067" cy="1.59744409" r="1.59744409"></circle>
                <circle id="Oval" cx="452.421725" cy="1.59744409" r="1.59744409"></circle>
                <circle id="Oval" cx="438.760383" cy="1.59744409" r="1.59744409"></circle>
                <circle id="Oval" cx="425.099042" cy="1.59744409" r="1.59744409"></circle>
                <circle id="Oval" cx="411.4377" cy="1.59744409" r="1.59744409"></circle>
                <circle id="Oval" cx="397.776358" cy="1.59744409" r="1.59744409"></circle>
                <circle id="Oval" cx="384.115016" cy="1.59744409" r="1.59744409"></circle>
                <circle id="Oval" cx="370.453674" cy="1.59744409" r="1.59744409"></circle>
                <circle id="Oval" cx="356.792332" cy="1.59744409" r="1.59744409"></circle>
                <circle id="Oval" cx="343.13099" cy="1.59744409" r="1.59744409"></circle>
                <circle id="Oval" cx="329.469649" cy="1.59744409" r="1.59744409"></circle>
                <circle id="Oval" cx="315.808307" cy="1.59744409" r="1.59744409"></circle>
                <circle id="Oval" cx="302.146965" cy="1.59744409" r="1.59744409"></circle>
                <circle id="Oval" cx="288.485623" cy="1.59744409" r="1.59744409"></circle>
                <circle id="Oval" cx="274.824281" cy="1.59744409" r="1.59744409"></circle>
                <circle id="Oval" cx="261.162939" cy="1.59744409" r="1.59744409"></circle>
                <circle id="Oval" cx="247.501597" cy="1.59744409" r="1.59744409"></circle>
                <circle id="Oval" cx="233.840256" cy="1.59744409" r="1.59744409"></circle>
                <circle id="Oval" cx="220.178914" cy="1.59744409" r="1.59744409"></circle>
                <circle id="Oval" cx="206.517572" cy="1.59744409" r="1.59744409"></circle>
                <circle id="Oval" cx="192.85623" cy="1.59744409" r="1.59744409"></circle>
                <circle id="Oval" cx="179.194888" cy="1.59744409" r="1.59744409"></circle>
                <circle id="Oval" cx="165.533546" cy="1.59744409" r="1.59744409"></circle>
                <circle id="Oval" cx="151.872204" cy="1.59744409" r="1.59744409"></circle>
                <circle id="Oval" cx="138.210863" cy="1.59744409" r="1.59744409"></circle>
                <circle id="Oval" cx="124.549521" cy="1.59744409" r="1.59744409"></circle>
                <circle id="Oval" cx="110.888179" cy="1.59744409" r="1.59744409"></circle>
                <circle id="Oval" cx="97.2268371" cy="1.59744409" r="1.59744409"></circle>
                <circle id="Oval" cx="83.5654952" cy="1.59744409" r="1.59744409"></circle>
                <circle id="Oval" cx="69.9041534" cy="1.59744409" r="1.59744409"></circle>
                <circle id="Oval" cx="56.2428115" cy="1.59744409" r="1.59744409"></circle>
                <circle id="Oval" cx="42.5814696" cy="1.59744409" r="1.59744409"></circle>
                <circle id="Oval" cx="28.9201278" cy="1.59744409" r="1.59744409"></circle>
                <circle id="Oval" cx="15.2587859" cy="1.59744409" r="1.59744409"></circle>
                <circle id="Oval" cx="1.59744409" cy="1.59744409" r="1.59744409"></circle>
            </g>
        </g>
    </g>
</svg>