<?xml version="1.0" standalone="no"?>
<!DOCTYPE svg PUBLIC "-//W3C//DTD SVG 20010904//EN"
 "http://www.w3.org/TR/2001/REC-SVG-20010904/DTD/svg10.dtd">
<svg version="1.0" xmlns="http://www.w3.org/2000/svg"
 width="700.000000pt" height="700.000000pt" viewBox="0 0 700.000000 700.000000"
 preserveAspectRatio="xMidYMid meet">
<metadata>
Created by potrace 1.14, written by Peter Selinger 2001-2017
</metadata>
<g transform="translate(0.000000,700.000000) scale(0.100000,-0.100000)"
fill="#000000" stroke="none">
<path d="M3730 6863 c-187 -13 -425 -50 -830 -128 -129 -25 -238 -45 -242 -45
-4 0 -8 7 -8 17 0 14 -15 15 -162 10 -186 -7 -260 -17 -408 -53 -191 -45 -360
-131 -525 -264 -51 -41 -157 -127 -236 -191 -236 -191 -403 -376 -549 -609
-49 -77 -223 -408 -419 -795 -148 -293 -233 -601 -277 -1007 -21 -194 -24
-586 -6 -678 46 -226 197 -731 289 -965 151 -383 340 -682 593 -935 93 -94
187 -172 365 -306 517 -388 705 -488 1162 -617 578 -164 712 -189 1048 -190
226 0 315 14 485 78 183 68 334 137 655 298 558 278 669 351 1146 744 119 98
258 212 309 253 204 166 360 368 565 735 206 369 258 567 285 1085 17 320 -1
579 -76 1080 -57 381 -104 550 -219 786 -146 298 -362 558 -631 760 -137 104
-229 160 -440 272 -189 100 -285 159 -494 306 -91 63 -210 137 -265 164 -304
152 -717 224 -1115 195z m394 -940 c318 -48 644 -193 1048 -465 168 -113 256
-200 330 -324 123 -209 266 -644 314 -959 16 -100 19 -174 18 -440 -2 -418
-25 -625 -99 -879 -184 -630 -758 -1320 -1350 -1623 -449 -229 -950 -265
-1554 -112 -406 103 -992 341 -1266 514 -216 136 -421 319 -598 532 -235 285
-298 461 -314 883 -15 390 61 798 220 1175 l51 120 174 170 c148 144 186 188
249 285 224 342 494 590 818 746 126 61 601 222 835 283 193 51 446 89 760
115 74 6 258 -4 364 -21z"/>
<path d="M1720 4255 c0 -23 3 -25 51 -25 72 0 114 -23 133 -71 14 -34 16 -104
16 -502 0 -277 -4 -476 -10 -498 -15 -52 -40 -70 -120 -82 -63 -10 -70 -14
-70 -34 l0 -23 250 0 250 0 0 25 c0 21 -5 25 -32 25 -54 1 -109 17 -134 41
-40 37 -44 96 -42 523 l3 399 229 -514 c126 -283 235 -521 242 -529 12 -12 16
-12 27 0 8 8 107 227 222 485 114 259 212 477 216 485 6 9 8 -151 7 -385 -3
-432 -4 -437 -58 -477 -14 -10 -52 -21 -87 -24 -58 -6 -63 -9 -63 -30 l0 -24
295 0 295 0 0 23 c0 20 -7 24 -70 34 -80 12 -105 30 -121 82 -7 24 -9 201 -7
516 3 444 4 482 21 507 22 32 64 48 128 48 46 0 49 2 49 25 l0 25 -172 0 -173
0 -225 -505 -224 -505 -26 57 c-14 32 -116 259 -225 505 l-200 448 -187 0
-188 0 0 -25z"/>
<path d="M3580 4257 c0 -23 5 -25 67 -30 59 -4 71 -9 94 -35 17 -19 30 -48 34
-74 3 -24 5 -248 3 -498 -3 -494 -4 -497 -59 -526 -15 -7 -52 -17 -83 -20 -50
-6 -56 -9 -56 -30 l0 -24 250 0 250 0 0 24 c0 21 -5 24 -60 29 -33 4 -73 13
-88 21 -56 29 -57 33 -59 506 -2 374 0 431 12 405 7 -16 111 -248 230 -515
119 -267 223 -492 231 -500 9 -9 17 -11 23 -5 6 6 104 222 220 482 115 260
215 480 221 490 8 13 10 -84 7 -377 -3 -334 -6 -401 -19 -432 -21 -48 -50 -65
-125 -74 -58 -6 -63 -9 -63 -30 l0 -24 295 0 295 0 0 24 c0 21 -5 24 -62 30
-73 8 -101 24 -125 69 -17 29 -18 71 -18 507 0 427 2 479 17 513 21 45 65 67
138 67 47 0 50 2 50 25 l0 25 -173 0 -173 0 -226 -505 -225 -504 -224 502
-225 502 -187 3 -187 2 0 -23z"/>
</g>
</svg>
